# xmcd
#
# Track frame offsets: 
#        150
#        16830
#        31337
#        42703
#
# Disc length: 758 seconds
#
# Revision: 3
# Processed by: cddbd v1.5.2PL0 Copyright (c) Steve Scherf et al.
# Submitted via: ExactAudioCopy v0.99pb5
#
DISCID=2a02f404
DTITLE=The Promise Ring - Electric Pink EP
DYEAR=2000
DGENRE=Indie
TTITLE0=Electric Pink
TTITLE1=Strictly Television
TTITLE2=American Girl (v.01)
TTITLE3=Make Me A Mixtape
EXTD=\nYEAR: 2001  ID3G:   0
EXTT0=
EXTT1=
EXTT2=
EXTT3=
PLAYORDER=
